<?xml version="1.0" encoding="UTF-8" standalone="no"?>
<!DOCTYPE svg PUBLIC "-//W3C//DTD SVG 1.1//EN" "http://www.w3.org/Graphics/SVG/1.1/DTD/svg11.dtd">
<svg width="100%" height="100%" viewBox="0 0 341 72" version="1.1" xmlns="http://www.w3.org/2000/svg" xmlns:xlink="http://www.w3.org/1999/xlink" xml:space="preserve" xmlns:serif="http://www.serif.com/" style="fill-rule:evenodd;clip-rule:evenodd;">
    <g transform="matrix(1,0,0,1,0,-217.006)">
        <g id="returningTravellers" transform="matrix(1.04196,0,0,1.31859,-0.898896,-50.0687)">
            <rect x="0.863" y="202.546" width="326.699" height="54.147" style="fill:none;"/>
            <g transform="matrix(0.959733,0,0,0.758387,-363.82,3.03867)">
                <path d="M596.81,303.108L596.81,304.808L619.481,304.808C611.779,304.434 604.202,303.86 596.81,303.108Z" style="fill:rgb(255,158,27);fill-opacity:0.6;fill-rule:nonzero;stroke:white;stroke-width:0.34px;"/>
            </g>
            <g transform="matrix(-0.136763,-0.750647,-0.949938,0.108071,424.735,532.461)">
                <path d="M449.886,256.793C449.69,261.463 449.182,265.914 448.702,270.288C445.645,298.156 446.218,330.932 449.886,364.851L434.634,258.989L449.886,256.793Z" style="fill:rgb(153,153,153);fill-opacity:0.6;fill-rule:nonzero;stroke:white;stroke-width:0.34px;"/>
            </g>
            <g transform="matrix(0.959733,0,0,0.758387,-363.82,-2.62413)">
                <path d="M503.358,303.119C479.257,308.183 451.878,311.248 423.347,312.254L503.358,312.265L503.358,303.119Z" style="fill:rgb(153,153,153);fill-opacity:0.6;fill-rule:nonzero;stroke:white;stroke-width:0.34px;"/>
            </g>
            <g transform="matrix(0.959733,0,0,0.758387,-363.82,0.211248)">
                <path d="M596.81,303.108L596.81,308.537L646.425,308.537C628.984,307.688 612.147,305.858 596.81,303.108Z" style="fill:rgb(255,158,27);fill-opacity:0.6;fill-rule:nonzero;stroke:white;stroke-width:0.34px;"/>
            </g>
            <g transform="matrix(0,0.758387,0.959733,0,-49.683,-253.533)">
                <path d="M630.426,269.492L643.11,269.492L643.12,349.419C641.735,320.929 637.734,294.006 631.376,272.692C631.061,271.635 630.743,270.559 630.426,269.492Z" style="fill:rgb(255,158,27);fill-opacity:0.6;fill-rule:nonzero;stroke:white;stroke-width:0.34px;"/>
            </g>
            <g transform="matrix(0.959733,0,0,0.758387,-363.82,-8.35231)">
                <path d="M602.062,303.142C600.248,303.187 598.511,303.33 596.81,303.511L596.81,319.818L707.049,319.828C678.559,318.443 651.635,314.442 630.321,308.084C623.066,305.92 615.71,303.542 606.103,303.163C604.72,303.108 603.376,303.109 602.062,303.142Z" style="fill:rgb(255,158,27);fill-opacity:0.6;fill-rule:nonzero;stroke:white;stroke-width:0.34px;"/>
            </g>
            <g transform="matrix(0.959733,0,0,0.758387,-0.294738,202.716)">
                <g transform="matrix(0.996559,0,0,1,0.00415009,0)">
                    <text x="1.206px" y="7.015px" style="font-family:'HelveticaNeue-Bold', 'Helvetica Neue';font-weight:700;font-size:10.139px;">B</text>
                </g>
                <g transform="matrix(0.996559,0,0,1,0.0382942,0)">
                    <text x="11.128px" y="7.015px" style="font-family:'HelveticaNeue-BoldItalic', 'Helvetica Neue';font-weight:700;font-style:italic;font-size:6.759px;">r<tspan x="13.636px 17.516px " y="7.015px 7.015px ">et</tspan>ur<tspan x="26.897px 31.027px " y="7.015px 7.015px ">ni</tspan>ng travellers</text>
                </g>
            </g>
            <g transform="matrix(0.959733,0,0,0.758387,-0.294738,202.716)">
                <clipPath id="_clip1">
                    <rect x="215.509" y="50.118" width="5.07" height="6.505" clip-rule="nonzero"/>
                </clipPath>
                <g clip-path="url(#_clip1)">
                    <g>
                        <g transform="matrix(0.996559,0,0,1,0.740547,0)">
                            <text x="215.2px" y="54.576px" style="font-family:'STIXGeneral-Italic', 'STIXGeneral';font-style:italic;font-size:8.165px;">t</text>
                        </g>
                        <g transform="matrix(0.996559,0,0,1,0.747348,0)">
                            <text x="217.176px" y="56.617px" style="font-family:'STIXGeneral-Italic', 'STIXGeneral';font-style:italic;font-size:5.797px;">R</text>
                        </g>
                    </g>
                </g>
            </g>
            <g transform="matrix(0.959733,0,0,0.758387,-0.294738,202.716)">
                <clipPath id="_clip2">
                    <rect x="64.137" y="50.118" width="5.335" height="6.505" clip-rule="nonzero"/>
                </clipPath>
                <g clip-path="url(#_clip2)">
                    <g>
                        <g transform="matrix(0.996559,0,0,1,0.219645,0)">
                            <text x="63.828px" y="54.576px" style="font-family:'STIXGeneral-Italic', 'STIXGeneral';font-style:italic;font-size:8.165px;">t</text>
                        </g>
                        <g transform="matrix(0.996559,0,0,1,0.226445,0)">
                            <text x="65.804px" y="56.617px" style="font-family:'STIXGeneral-Italic', 'STIXGeneral';font-style:italic;font-size:5.797px;">E</text>
                        </g>
                    </g>
                </g>
            </g>
            <g transform="matrix(0.95643,0,0,0.758387,0.487492,202.716)">
                <text x="236.85px" y="20.887px" style="font-family:'HelveticaNeue', 'Helvetica Neue';font-size:5.407px;fill:rgb(255,158,27);">transmission post quarantine</text>
            </g>
            <g transform="matrix(0.95643,0,0,0.758387,0.178202,202.716)">
                <text x="143.201px" y="20.887px" style="font-family:'HelveticaNeue', 'Helvetica Neue';font-size:5.407px;fill:rgb(27,124,255);">prevented transmission</text>
            </g>
            <g transform="matrix(0.95643,0,0,0.758387,-0.167103,202.716)">
                <text x="38.646px" y="20.887px" style="font-family:'HelveticaNeue', 'Helvetica Neue';font-size:5.407px;fill:rgb(94,94,94);">transmission prior to return</text>
            </g>
            <g transform="matrix(0.959733,0,0,0.758387,-0.294738,202.716)">
                <clipPath id="_clip3">
                    <rect x="113.937" y="49.056" width="19.813" height="8.621" clip-rule="nonzero"/>
                </clipPath>
                <g clip-path="url(#_clip3)">
                    <g>
                        <g transform="matrix(0.996559,0,0,1,0.391017,0)">
                            <text x="113.628px" y="54.576px" style="font-family:'STIXGeneral-Italic', 'STIXGeneral';font-style:italic;font-size:8.165px;">t</text>
                        </g>
                        <g transform="matrix(0.996559,0,0,1,0.397819,0)">
                            <text x="115.605px" y="56.617px" style="font-family:'STIXGeneral-Italic', 'STIXGeneral';font-style:italic;font-size:5.797px;">Q</text>
                        </g>
                        <g transform="matrix(0.996559,0,0,1,0.412171,0)">
                            <text x="122.043px" y="54.576px" style="font-family:'STIXGeneral-Regular', 'STIXGeneral';font-size:8.165px;"><tspan x="122.043px 127.636px 129.904px " y="54.576px 54.576px 54.576px ">= 0</tspan></text>
                        </g>
                    </g>
                </g>
            </g>
            <g transform="matrix(0.959733,0,0,0.758387,-363.82,-8.35231)">
                <path d="M514.494,303.142C510.558,303.239 506.956,303.744 503.484,304.388L503.484,319.818L596.673,319.828L596.673,318.107C576.773,316.076 558.269,312.713 542.753,308.084C535.498,305.92 528.142,303.542 518.535,303.163C517.152,303.108 515.807,303.109 514.494,303.142Z" style="fill:rgb(27,124,255);fill-opacity:0.6;fill-rule:nonzero;stroke:white;stroke-width:0.34px;"/>
            </g>
            <g transform="matrix(0.959733,0,0,0.758387,-363.82,-8.35231)">
                <path d="M541.438,303.142C532.24,303.37 524.629,305.567 517.114,307.503C512.723,308.635 508.141,309.67 503.484,310.651L503.484,319.818L596.673,319.828L596.673,314.368C587.009,312.631 577.923,310.538 569.697,308.084C562.442,305.92 555.086,303.542 545.479,303.163C544.096,303.108 542.752,303.109 541.438,303.142Z" style="fill:rgb(27,124,255);fill-opacity:0.6;fill-rule:nonzero;stroke:white;stroke-width:0.34px;"/>
            </g>
            <g transform="matrix(0.959733,0,0,0.758387,-363.82,-8.36027)">
                <path d="M571.75,303.152C562.552,303.381 554.941,305.577 547.426,307.514C533.95,310.987 519.144,313.737 503.484,315.783L503.484,319.818L596.673,319.828L596.673,307.113C590.45,305.265 583.942,303.495 575.791,303.173C574.408,303.119 573.064,303.119 571.75,303.152Z" style="fill:rgb(27,124,255);fill-opacity:0.6;fill-rule:nonzero;stroke:white;stroke-width:0.34px;"/>
            </g>
            <g transform="matrix(0.959733,0,0,0.758387,-363.82,-8.03856)">
                <path d="M596.673,303.119C589.803,303.865 583.73,305.546 577.738,307.09C555.83,312.736 530.395,316.463 503.484,318.337L503.484,319.394L596.673,319.404L596.673,303.119Z" style="fill:rgb(27,124,255);fill-opacity:0.6;fill-rule:nonzero;stroke:white;stroke-width:0.34px;"/>
            </g>
            <g transform="matrix(0.959733,0,0,0.758387,-363.82,1.25251)">
                <path d="M503.358,303.129C487.508,305.196 470.784,306.538 453.659,307.143L503.358,307.143L503.358,303.129Z" style="fill:rgb(153,153,153);fill-opacity:0.6;fill-rule:nonzero;stroke:white;stroke-width:0.34px;"/>
            </g>
            <g transform="matrix(0.959733,0,0,0.758387,-363.82,3.50318)">
                <path d="M503.358,303.129C496.963,303.573 490.509,303.944 483.971,304.175L503.358,304.175L503.358,303.129Z" style="fill:rgb(153,153,153);fill-opacity:0.6;fill-rule:nonzero;stroke:white;stroke-width:0.34px;"/>
            </g>
            <g transform="matrix(0.323238,0,0,-0.256307,15.1741,234.659)">
                <path d="M0,0L906.912,0" style="fill:none;fill-rule:nonzero;stroke:black;stroke-width:2px;"/>
            </g>
            <g transform="matrix(0.959733,0,0,0.758387,-363.82,5.24337)">
                <path d="M700.007,304.127L703.241,302.505L700.007,300.882L700.007,304.127Z" style="fill-rule:nonzero;"/>
            </g>
            <g transform="matrix(-0.679806,-0.535332,-0.677458,0.537188,498.352,287.099)">
                <ellipse cx="400.962" cy="302.277" rx="3.004" ry="3.01" style="fill:rgb(94,94,94);stroke:white;stroke-width:0.34px;"/>
            </g>
            <g transform="matrix(-0.679798,-0.535338,-0.677466,0.537181,547.027,302.997)">
                <ellipse cx="430.65" cy="302.277" rx="3.004" ry="3.01" style="fill:rgb(94,94,94);stroke:white;stroke-width:0.34px;"/>
            </g>
            <g transform="matrix(-0.679806,-0.535332,-0.677458,0.537188,595.634,318.863)">
                <ellipse cx="460.296" cy="302.277" rx="3.004" ry="3.01" style="fill:rgb(94,94,94);stroke:white;stroke-width:0.34px;"/>
            </g>
            <g transform="matrix(-0.679806,-0.535332,-0.677458,0.537188,644.089,334.685)">
                <ellipse cx="489.851" cy="302.277" rx="3.004" ry="3.01" style="fill:rgb(94,94,94);stroke:white;stroke-width:0.34px;"/>
            </g>
            <g transform="matrix(-0.679806,-0.535332,-0.677458,0.537188,666.632,342.045)">
                <ellipse cx="503.6" cy="302.277" rx="3.004" ry="3.01" style="fill:rgb(0,158,115);stroke:white;stroke-width:0.34px;"/>
            </g>
            <g transform="matrix(-0.679798,-0.535338,-0.677466,0.537181,819.321,391.907)">
                <ellipse cx="596.731" cy="302.277" rx="3.004" ry="3.01" style="fill:rgb(0,158,115);stroke:white;stroke-width:0.34px;"/>
            </g>
            <g transform="matrix(0.95643,0,0,0.758387,1.94094,202.546)">
                <text x="326.478px" y="44.703px" style="font-family:'HelveticaNeue', 'Helvetica Neue';font-size:6.759px;">time</text>
            </g>
        </g>
        <g transform="matrix(0.996559,0,0,1,-0.577917,217.231)">
            <text x="182.518px" y="62.415px" style="font-family:'HelveticaNeue', 'Helvetica Neue';font-size:6.759px;">r<tspan x="184.647px 188.277px " y="62.415px 62.415px ">el</tspan>ease fr<tspan x="210.055px 213.935px " y="62.415px 62.415px ">om</tspan> quarantine</text>
        </g>
        <g transform="matrix(1,0,0,1,-1.206,217.231)">
            <g transform="matrix(0.996559,0,0,1,0.149901,0)">
                <text x="43.561px" y="62.415px" style="font-family:'HelveticaNeue', 'Helvetica Neue';font-size:6.759px;">exposur<tspan x="67.847px 71.476px " y="62.415px 62.415px ">e </tspan>times</text>
            </g>
            <g transform="matrix(0.996559,0,0,1,0.175886,0)">
                <text x="51.112px" y="69.734px" style="font-family:'HelveticaNeue', 'Helvetica Neue';font-size:6.759px;">(unknown)</text>
            </g>
        </g>
        <g transform="matrix(0.996559,0,0,1,-0.869205,217.231)">
            <text x="97.871px" y="63.364px" style="font-family:'HelveticaNeue', 'Helvetica Neue';font-size:6.759px;">quarantine begins</text>
        </g>
    </g>
</svg>
